<svg xmlns="http://www.w3.org/2000/svg" viewBox="0 0 384 512"><path d="M277.3 76.8c-17.8 16.9-39.1 33.4-53.3 51.2-23.4-32.9-47.2-64.9-80-96C59.8 111.8 0 215.7 0 278.4 0 389.7 86 480 192 480s192-90.3 192-201.6c0-46.6-44.6-142.7-106.7-201.6zm-24.8 350.9c-4.5 3.5-24.9 19.9-59.1 20.2-58.4-.8-97.6-44.2-97.6-108.8 0-24.7 16.7-50.8 45.4-89.6l72.4 121.2 64.8-61.4c17.1 51 2.5 96.1-25.9 118.4zm60.2-39.2c10.1-38.6 4.6-85.7-24.7-132.5l-67.5 64L144 192c-62.8 84.5-96.3 119.9-72.9 196.2-24-29.7-39.1-67.7-39.1-109.8 0-43 41.4-126.5 111.8-200.9 20.5 22.5 37.4 45.6 54.1 69.1l24.6 34.6L249 148c6.9-8.6 16.3-17.4 26.6-26.5 46.6 54.4 76.4 126.6 76.4 157 0 42.1-15.2 80.3-39.3 110z"/></svg>